{"title":"Scooby Doo Camp Scare 2010 DvDRip XviD Ac3 Feel-Free","uid":5844110,"size":1291927775,"categoryP":"video","categoryS":"movies","magnet":"?xt=urn:btih:7fb2097df3731d774460b89652ffb5d5601998eb&amp;dn=Scooby+Doo+Camp+Scare+2010+DvDRip+XviD+Ac3+Feel-Free&amp;tr=udp%3A%2F%2Ftracker.openbittorrent.com%3A80&amp;tr=udp%3A%2F%2Fopen.demonii.com%3A1337&amp;tr=udp%3A%2F%2Ftracker.coppersurfer.tk%3A6969&amp;tr=udp%3A%2F%2Fexodus.desync.com%3A6969","seeders":0,"leechers":0,"uploader":"neon","files":-1,"time":1285088905,"description":"\nScooby and the gang took their vacation to Little Moose. They were forced to head to Big Moose for their much better summer vacation. During the time, many things are very mysterious, as a story of the Woodsman comes to life who takes over Little Moose scaring people. It also forces on the Fishman in Big Moose scaring people away.\n\nGenre:Animation\nLanguage:English\n &lt;a href=&quot; http://en.wikipedia.org/wiki/Scooby-Doo!_Camp_Scare&quot; rel=&quot;nofollow&quot; target=&quot;_NEW&quot;&gt; http://en.wikipedia.org/wiki/Scooby-Doo!_Camp_Scare&lt;/a&gt;\n &lt;a href=&quot; http://www.amazon.com/Scooby-Doo-Artist-Not-Provided/dp/B003T8FLTK/ref=sr_1_1?s=dvd&quot; rel=&quot;nofollow&quot; target=&quot;_NEW&quot;&gt; http://www.amazon.com/Scooby-Doo-Artist-Not-Provided/dp/B003T8FLTK/ref=sr_1_1?s=dvd&lt;/a&gt;\nSource:DVDR-KART3LDVD\n &lt;a href=&quot;\nhttp://www.starshare.ro/bitbucket/vlcsnap2010-09-21-17h50m45s138.jpg&quot; rel=&quot;nofollow&quot; target=&quot;_NEW&quot;&gt;\nhttp://www.starshare.ro/bitbucket/vlcsnap2010-09-21-17h50m45s138.jpg&lt;/a&gt; &lt;a href=&quot;\nhttp://www.starshare.ro/bitbucket/vlcsnap2010-09-21-17h50m49s189.jpg&quot; rel=&quot;nofollow&quot; target=&quot;_NEW&quot;&gt;\nhttp://www.starshare.ro/bitbucket/vlcsnap2010-09-21-17h50m49s189.jpg&lt;/a&gt; &lt;a href=&quot;\nhttp://www.starshare.ro/bitbucket/vlcsnap2010-09-21-17h50m54s231.jpg&quot; rel=&quot;nofollow&quot; target=&quot;_NEW&quot;&gt;\nhttp://www.starshare.ro/bitbucket/vlcsnap2010-09-21-17h50m54s231.jpg&lt;/a&gt; &lt;a href=&quot;\nhttp://www.starshare.ro/bitbucket/vlcsnap2010-09-21-17h51m03s72.jpg&quot; rel=&quot;nofollow&quot; target=&quot;_NEW&quot;&gt;\nhttp://www.starshare.ro/bitbucket/vlcsnap2010-09-21-17h51m03s72.jpg&lt;/a&gt; &lt;a href=&quot;\nhttp://www.starshare.ro/bitbucket/vlcsnap2010-09-21-17h51m18s218.jpg&quot; rel=&quot;nofollow&quot; target=&quot;_NEW&quot;&gt;\nhttp://www.starshare.ro/bitbucket/vlcsnap2010-09-21-17h51m18s218.jpg&lt;/a&gt;\n\nGeneral\nComplete name :Scooby Doo Camp Scare 2010 DvDRip XviD Ac3 Feel-Free\nFormat : AVI\nFormat/Info : Audio Video Interleave\nFile size : 1.20 GiB\nDuration : 1h 12mn\nOverall bit rate : 2 375 Kbps\nVideo #0\nMuxing mode : Packed bitstream\nCodec ID : XVID\nCodec ID/Hint : XviD\nDuration : 1h 12mn\nBit rate : 1 982 Kbps\nWidth : 652 pixels\nHeight : 352 pixels\nDisplay aspect ratio : 1.852\nFrame rate : 23.976 fps\nResolution : 24 bits\nColorimetry : 4:2:0\nScan type : Progressive\nBits/(Pixel*Frame) : 0.360\nStream size : 1.00 GiB (83%)\nWriting library : XviD 1.2.1 (UTC 2008-12-04)\nAudio #1\nID : 1\nFormat : AC-3\nFormat/Info : Audio Coding 3\nCodec ID : 2000\nDuration : 1h 12mn\nBit rate mode : Constant\nBit rate : 384 Kbps\nChannel(s) : 6 channels\nChannel positions : Front: L C R, Surround: L R, LFE\nSampling rate : 48.0 KHz\nVideo delay : 16ms\nStream size : 199 MiB (16%)\nAlignment : Split accross interleaves\nInterleave, duration : 42 ms (1.00 video frame)\nInterleave, preload duration : 500 ms ","torrent":{"xt":"urn:btih:7fb2097df3731d774460b89652ffb5d5601998eb","amp;dn":"Scooby+Doo+Camp+Scare+2010+DvDRip+XviD+Ac3+Feel-Free","amp;tr":["udp%3A%2F%2Ftracker.openbittorrent.com%3A80","udp%3A%2F%2Fopen.demonii.com%3A1337","udp%3A%2F%2Ftracker.coppersurfer.tk%3A6969","udp%3A%2F%2Fexodus.desync.com%3A6969"],"infoHash":"7fb2097df3731d774460b89652ffb5d5601998eb","infoHashBuffer":{"type":"Buffer","data":[127,178,9,125,243,115,29,119,68,96,184,150,82,255,181,213,96,25,152,235]},"announce":[],"urlList":[]}}